<svg width="24" height="24" viewBox="0 0 24 24" fill="none" xmlns="http://www.w3.org/2000/svg">
<path d="M2.09082 12.1988C2.09082 9.91032 2.09082 8.76611 2.60995 7.81763C3.12917 6.86904 4.07775 6.28035 5.97482 5.10297L7.97482 3.86169C9.98021 2.61711 10.9829 1.99487 12.0908 1.99487C13.1987 1.99487 14.2014 2.61711 16.2068 3.86169L18.2068 5.10297C20.104 6.28035 21.0525 6.86904 21.5716 7.81763C22.0908 8.76611 22.0908 9.91032 22.0908 12.1988V13.7199C22.0908 17.6207 22.0908 19.5712 20.9193 20.783C19.7478 21.9949 17.862 21.9949 14.0908 21.9949H10.0908C6.31953 21.9949 4.43398 21.9949 3.26235 20.783C2.09082 19.5712 2.09082 17.6207 2.09082 13.7199V12.1988Z" stroke="#C91717" stroke-width="3"/>
<path d="M9.0907 15.9949C9.9411 16.6252 10.9753 16.9949 12.0907 16.9949C13.2062 16.9949 14.2404 16.6252 15.0908 15.9949" stroke="#C91717" stroke-width="4" stroke-linecap="round"/>
</svg>
