<svg width="38" height="38" viewBox="0 0 38 38" fill="none" xmlns="http://www.w3.org/2000/svg">
<path d="M1.22766 19.4227C1.22766 15.4178 1.22766 13.4155 2.13614 11.7556C3.04477 10.0956 4.70479 9.06538 8.02466 7.00496L11.5247 4.83272C15.0341 2.65472 16.7888 1.5658 18.7277 1.5658C20.6665 1.5658 22.4212 2.65472 25.9307 4.83272L29.4307 7.00496C32.7507 9.06538 34.4106 10.0956 35.319 11.7556C36.2277 13.4155 36.2277 15.4178 36.2277 19.4227V22.0846C36.2277 28.911 36.2277 32.3243 34.1775 34.4451C32.1273 36.5658 28.8273 36.5658 22.2277 36.5658H15.2277C8.62791 36.5658 5.32819 36.5658 3.27785 34.4451C1.22766 32.3243 1.22766 28.911 1.22766 22.0846V19.4227Z" stroke="#C91717" stroke-width="2"/>
<path d="M13.4775 26.0658C14.9657 27.1688 16.7757 27.8159 18.7276 27.8159C20.6796 27.8159 22.4895 27.1688 23.9777 26.0658" stroke="#C91717" stroke-width="3" stroke-linecap="round"/>
</svg>
