<svg width="21" height="20" viewBox="0 0 21 20" fill="none" xmlns="http://www.w3.org/2000/svg">
<path d="M17.3004 0H3.96879C2.12688 0 0.633789 1.49309 0.633789 3.335V19.1667C0.633789 19.8827 1.47707 20.2653 2.01586 19.7938L8.13379 14.4406L14.2517 19.7938C14.7905 20.2653 15.6338 19.8826 15.6338 19.1666V10H19.8005C20.2607 10 20.6338 9.62691 20.6338 9.16668V3.33332C20.6338 1.49227 19.1415 0 17.3004 0ZM13.9671 17.3302L8.68254 12.7062C8.36836 12.4313 7.89922 12.4313 7.58504 12.7062L2.30043 17.3302V3.335C2.30043 2.41355 3.04734 1.66668 3.96875 1.66668H14.413C14.401 1.68746 14.3895 1.70855 14.3779 1.72961C14.3741 1.73652 14.3702 1.74332 14.3664 1.75023C14.344 1.79164 14.3226 1.83367 14.3019 1.87613C14.297 1.88613 14.2923 1.89621 14.2876 1.90625C14.2695 1.94437 14.252 1.98285 14.2354 2.02176C14.2326 2.02809 14.2297 2.03438 14.2271 2.0407C14.2086 2.08449 14.1913 2.12887 14.1747 2.17359C14.1707 2.1843 14.1669 2.19508 14.163 2.20582C14.1483 2.24668 14.1343 2.28785 14.1212 2.32941C14.1194 2.33496 14.1175 2.34043 14.1158 2.34598C14.1016 2.39188 14.0886 2.43832 14.0763 2.48508C14.0733 2.49645 14.0705 2.50785 14.0676 2.51926C14.0566 2.56301 14.0463 2.60707 14.0371 2.65148C14.0362 2.65578 14.0352 2.66 14.0343 2.6643C14.0245 2.71211 14.0161 2.76043 14.0085 2.80898C14.0066 2.8209 14.0048 2.83285 14.003 2.8448C13.9961 2.89184 13.9899 2.93906 13.985 2.98668C13.9848 2.9891 13.9844 2.99148 13.9841 2.99391C13.9791 3.04348 13.9756 3.09348 13.9727 3.14367C13.972 3.15602 13.9714 3.16836 13.9709 3.18074C13.9686 3.23137 13.967 3.28215 13.967 3.33336V9.16668L13.9671 17.3302ZM18.9671 8.33332H15.6338V3.33332C15.6338 2.41273 16.3798 1.66664 17.3005 1.66664C18.2211 1.66664 18.9671 2.4127 18.9671 3.33332L18.9671 8.33332Z" fill="#3BC5BC"/>
</svg>
