<svg width="22" height="22" viewBox="0 0 22 22" fill="none" xmlns="http://www.w3.org/2000/svg">
<path fill-rule="evenodd" clip-rule="evenodd" d="M15.3834 0.94043H18.6688C20.0281 0.94043 21.1308 2.05271 21.1308 3.42486V6.73779C21.1308 8.10891 20.0281 9.22222 18.6688 9.22222H15.3834C14.023 9.22222 12.9203 8.10891 12.9203 6.73779V3.42486C12.9203 2.05271 14.023 0.94043 15.3834 0.94043ZM3.47849 0.94043H6.7629C8.12325 0.94043 9.22595 2.05271 9.22595 3.42486V6.73779C9.22595 8.10891 8.12325 9.22222 6.7629 9.22222H3.47849C2.11815 9.22222 1.01544 8.10891 1.01544 6.73779V3.42486C1.01544 2.05271 2.11815 0.94043 3.47849 0.94043ZM3.47849 12.774H6.7629C8.12325 12.774 9.22595 13.8863 9.22595 15.2595V18.5714C9.22595 19.9435 8.12325 21.0558 6.7629 21.0558H3.47849C2.11815 21.0558 1.01544 19.9435 1.01544 18.5714V15.2595C1.01544 13.8863 2.11815 12.774 3.47849 12.774ZM15.3834 12.774H18.6688C20.0281 12.774 21.1308 13.8863 21.1308 15.2595V18.5714C21.1308 19.9435 20.0281 21.0558 18.6688 21.0558H15.3834C14.023 21.0558 12.9203 19.9435 12.9203 18.5714V15.2595C12.9203 13.8863 14.023 12.774 15.3834 12.774Z" fill="#C91717" stroke="#C91717" stroke-linecap="round" stroke-linejoin="round"/>
</svg>
