<svg width="23" height="23" viewBox="0 0 23 23" fill="none" xmlns="http://www.w3.org/2000/svg">
<path fill-rule="evenodd" clip-rule="evenodd" d="M3.82446 4.52722C3.82446 4.08973 4.17257 3.75732 4.57482 3.75732H7.57562C7.97787 3.75732 8.32598 4.08973 8.32598 4.52722V7.55407C8.32598 7.99102 7.97746 8.32396 7.57562 8.32396H4.57482C4.17298 8.32396 3.82446 7.99102 3.82446 7.55407V4.52722ZM4.57482 0.757324C2.49132 0.757324 0.824463 2.45738 0.824463 4.52722V7.55407C0.824463 9.62255 2.49091 11.324 4.57482 11.324H7.57562C9.65953 11.324 11.326 9.62255 11.326 7.55407V4.52722C11.326 2.45738 9.65912 0.757324 7.57562 0.757324H4.57482ZM14.7013 4.52722C14.7013 4.08973 15.0494 3.75732 15.4517 3.75732H18.4534C18.8543 3.75732 19.2028 4.08932 19.2028 4.52722V7.55407C19.2028 7.99143 18.8539 8.32396 18.4534 8.32396H15.4517C15.0498 8.32396 14.7013 7.99102 14.7013 7.55407V4.52722ZM15.4517 0.757324C13.3682 0.757324 11.7013 2.45738 11.7013 4.52722V7.55407C11.7013 9.62255 13.3678 11.324 15.4517 11.324H18.4534C20.5368 11.324 22.2028 9.62214 22.2028 7.55407V4.52722C22.2028 2.45779 20.5364 0.757324 18.4534 0.757324H15.4517ZM3.82446 15.3399C3.82446 14.9011 4.17298 14.5691 4.57482 14.5691H7.57562C7.97746 14.5691 8.32598 14.9011 8.32598 15.3399V18.3658C8.32598 18.8033 7.97787 19.1357 7.57562 19.1357H4.57482C4.17257 19.1357 3.82446 18.8033 3.82446 18.3658V15.3399ZM4.57482 11.5691C2.49091 11.5691 0.824463 13.2695 0.824463 15.3399V18.3658C0.824463 20.4356 2.49132 22.1357 4.57482 22.1357H7.57562C9.65912 22.1357 11.326 20.4356 11.326 18.3658V15.3399C11.326 13.2695 9.65953 11.5691 7.57562 11.5691H4.57482ZM14.7013 15.3399C14.7013 14.9011 15.0498 14.5691 15.4517 14.5691H18.4534C18.8539 14.5691 19.2028 14.9006 19.2028 15.3399V18.3658C19.2028 18.8037 18.8543 19.1357 18.4534 19.1357H15.4517C15.0494 19.1357 14.7013 18.8033 14.7013 18.3658V15.3399ZM15.4517 11.5691C13.3678 11.5691 11.7013 13.2695 11.7013 15.3399V18.3658C11.7013 20.4356 13.3682 22.1357 15.4517 22.1357H18.4534C20.5364 22.1357 22.2028 20.4352 22.2028 18.3658V15.3399C22.2028 13.2699 20.5368 11.5691 18.4534 11.5691H15.4517Z" fill="#C91717"/>
<rect x="2.86499" y="2.25732" width="6.48649" height="7.56757" fill="#C91717"/>
<rect x="13.6758" y="2.25732" width="6.48649" height="7.56757" fill="#C91717"/>
<rect x="2.86499" y="13.0681" width="6.48649" height="7.56757" fill="#C91717"/>
<rect x="13.6758" y="13.0681" width="6.48649" height="7.56757" fill="#C91717"/>
</svg>
