<svg width="731" height="403" viewBox="0 0 731 403" fill="none" xmlns="http://www.w3.org/2000/svg">
<path d="M243.166 193.934C257.137 183.77 274.341 179.612 291.43 182.268C308.519 184.925 323.644 194.165 333.805 208.257C334.96 209.874 336.114 211.607 337.154 213.339C344.89 226.276 347.776 241.523 345.467 256.538C342.811 273.633 333.574 288.765 319.488 298.929C311.059 305.051 301.475 308.978 291.545 310.48L296.857 320.067C307.133 317.872 316.947 313.714 325.723 307.361C359.323 282.874 366.712 235.632 342.349 202.135C330.572 185.849 313.022 175.107 293.162 171.988C273.302 168.87 253.442 173.605 237.162 185.502C233.698 188.043 230.465 190.931 227.579 193.819L232.89 203.406C236.007 199.941 239.471 196.706 243.282 193.819L243.166 193.934Z" fill="#FAFAFA"/>
<path d="M309.673 285.53C331.15 269.937 335.884 239.79 320.296 218.19C304.708 196.706 274.457 191.971 252.981 207.564C248.362 210.914 244.667 215.072 241.55 219.577L247.438 230.319C250.094 224.774 254.02 219.808 259.1 215.996C275.958 203.752 299.628 207.448 311.867 224.312C312.56 225.236 313.137 226.276 313.83 227.2C323.644 243.833 319.488 265.548 303.554 277.098C295.587 282.874 286.003 285.068 276.882 283.913L282.77 294.655C292.123 294.424 301.591 291.421 309.673 285.53Z" fill="#FAFAFA"/>
<path d="M250.325 104.533C230.234 76.8113 194.556 66.9933 163.843 78.0819L168.923 87.3223C178.622 84.0882 189.129 83.1641 199.521 84.7812C216.61 87.4379 231.735 96.6783 241.896 110.77C243.051 112.387 244.205 114.12 245.245 115.852C251.133 125.786 254.251 136.874 254.251 148.309C254.482 148.309 254.597 148.309 254.828 148.194C257.484 147.501 260.139 146.923 262.911 146.346C263.488 146.346 264.065 146.115 264.642 145.999C264.065 131.561 259.447 117.123 250.325 104.648V104.533Z" fill="#FAFAFA"/>
<path d="M203.678 58.446C227.81 62.2577 249.055 75.3098 263.372 95.0613C264.989 97.3715 266.605 99.6816 267.991 102.107C275.842 115.39 279.999 129.944 280.692 144.613C281.269 144.613 281.847 144.613 282.424 144.613C285.08 144.613 287.735 144.729 290.391 144.96C290.737 144.96 290.968 144.96 291.315 144.96C290.622 124.862 283.925 105.341 271.917 88.824C255.867 66.7624 232.313 52.3242 205.41 48.0504C186.705 45.0473 168 47.4729 151.026 54.4033L156.107 63.6437C171.117 57.7529 187.513 55.7893 203.909 58.3305L203.678 58.446Z" fill="#FAFAFA"/>
<path d="M228.387 120.588C216.379 104.071 195.826 97.4869 177.121 102.454L182.317 111.925C196.173 109.269 211.067 114.582 219.958 126.71C220.651 127.634 221.344 128.674 221.921 129.598C226.424 137.221 228.156 145.999 226.77 154.778C226.424 157.088 225.731 159.398 225.038 161.593C225.269 161.477 225.616 161.246 225.847 161.131C228.271 159.629 230.696 158.128 233.121 156.741C234.507 156.048 235.892 155.24 237.278 154.547C238.663 142.419 235.777 130.522 228.502 120.473L228.387 120.588Z" fill="#FAFAFA"/>
<path d="M262.911 146.346C260.255 146.808 257.484 147.386 254.828 148.194C247.323 150.158 240.049 153.045 233.006 156.857C230.581 158.243 228.156 159.629 225.731 161.246C224.23 162.17 222.729 163.094 221.344 164.134C218.804 165.982 216.494 167.83 214.185 169.909L219.381 179.265C221.921 176.955 224.577 174.645 227.463 172.566C268.337 142.881 325.723 152.006 355.397 192.779C357.706 195.898 359.785 199.248 361.632 202.597C383.455 242.331 372.832 293.27 335.191 320.76C325.954 327.459 315.678 332.311 304.939 335.083L310.02 344.439C320.989 341.204 331.496 336.238 341.31 329.192C386.803 296.157 396.848 232.167 363.826 186.658C345.814 161.939 318.68 147.732 290.391 145.191C287.735 144.96 285.08 144.844 282.424 144.844C275.843 144.844 269.377 145.307 262.911 146.462V146.346Z" fill="#FAFAFA"/>
<path d="M211.068 403C165.46 403 120.082 388.215 82.3257 359.223C81.0556 358.184 80.0165 356.798 79.3237 355.296C70.0866 332.079 59.1176 308.747 46.6475 286.108C33.1382 261.505 18.3589 238.289 2.65586 217.035C1.61669 215.649 1.03937 214.148 0.923908 212.415C-7.15854 128.327 35.4475 47.7038 109.344 7.04575C112.924 5.08215 116.503 3.34956 120.198 1.73248L122.161 0.808429C126.548 -1.27068 131.86 0.461912 134.169 4.73563L327.686 357.26C329.995 361.533 328.61 366.847 324.568 369.503L322.375 370.889C319.142 372.968 315.909 375.047 312.445 376.896C280.692 394.337 245.822 402.884 211.068 402.884V403ZM95.604 346.055C155.992 391.334 237.393 397.109 303.554 360.725C304.824 360.032 306.094 359.339 307.249 358.53L122.045 21.253C120.775 21.8305 119.505 22.5235 118.235 23.2166C51.497 59.9474 12.8167 132.254 19.1672 208.141C34.7547 229.395 49.4186 252.611 62.9279 277.214C75.2825 299.738 86.367 322.954 95.604 346.055Z" fill="#FAFAFA"/>
<path d="M451.924 330.693C444.766 330.693 437.838 329.538 431.487 327.113C425.137 324.687 419.364 321.453 414.514 317.295C409.665 313.136 405.739 308.17 402.852 302.741C399.966 297.081 398.465 290.959 398.465 284.491V253.766C398.465 247.529 399.966 241.407 402.852 235.747C405.739 230.203 409.549 225.236 414.399 221.194C419.133 217.151 424.791 213.917 431.257 211.491C444.188 206.64 459.314 206.756 471.9 211.491C478.25 213.801 483.908 217.151 488.757 221.194C493.722 225.352 497.648 230.203 500.419 235.863C503.306 241.638 504.807 247.645 504.807 253.997V284.722C504.807 291.19 503.306 297.312 500.419 302.972C497.533 308.401 493.722 313.367 488.873 317.526C484.139 321.684 478.481 325.034 472.015 327.344C465.665 329.769 458.852 330.924 451.809 330.924L451.924 330.693ZM451.463 218.306C445.689 218.306 440.032 219.23 434.836 221.194C429.64 223.157 425.021 225.814 421.211 229.048C417.401 232.282 414.399 236.094 412.205 240.483C410.011 244.757 408.972 249.146 408.972 253.882V284.606C408.972 289.342 410.011 293.847 412.205 298.005C414.399 302.279 417.516 306.091 421.327 309.44C425.252 312.79 429.871 315.447 435.182 317.41C445.459 321.222 458.044 321.337 468.667 317.41C473.863 315.447 478.481 312.79 482.291 309.44C486.102 306.091 489.104 302.279 491.413 298.005C493.607 293.847 494.646 289.342 494.646 284.606V253.882C494.646 249.146 493.607 244.872 491.413 240.483C489.219 236.094 486.217 232.398 482.291 229.164C478.366 225.929 473.632 223.273 468.436 221.309C463.24 219.346 457.467 218.422 451.578 218.422L451.463 218.306ZM451.463 313.829C447.075 313.829 442.918 313.021 438.877 311.519C434.951 310.018 431.487 307.939 428.485 305.282C425.483 302.625 423.059 299.622 421.211 296.157C419.248 292.461 418.325 288.649 418.325 284.606V253.882C418.325 249.839 419.248 246.028 421.211 242.331C423.059 238.866 425.483 235.747 428.601 233.206C431.603 230.665 435.182 228.586 439.108 227.085C447.075 224.081 456.428 223.966 464.51 227.085C468.436 228.586 471.9 230.665 474.902 233.206C477.904 235.747 480.329 238.866 482.176 242.331C484.139 245.912 485.063 249.839 485.063 253.882V284.606C485.063 288.649 484.139 292.461 482.176 296.157C480.329 299.622 477.904 302.741 474.902 305.282C471.9 307.939 468.32 310.018 464.279 311.519C460.238 313.021 455.966 313.829 451.463 313.829ZM451.924 235.17C448.692 235.17 445.574 235.747 442.687 236.787C439.801 237.827 437.261 239.328 435.182 241.061C433.104 242.793 431.487 244.757 430.333 247.067C429.178 249.262 428.601 251.456 428.601 253.766V284.491C428.601 286.801 429.178 288.996 430.333 291.19C431.603 293.5 433.219 295.58 435.298 297.428C437.376 299.276 439.801 300.777 442.572 301.817C448.345 304.011 455.042 303.896 460.584 301.817C463.471 300.777 465.896 299.276 467.974 297.428C470.052 295.58 471.669 293.5 472.939 291.19C474.094 289.111 474.555 286.917 474.555 284.491V253.766C474.555 251.456 473.978 249.262 472.823 247.067C471.553 244.757 469.937 242.793 467.974 241.061C465.896 239.328 463.355 237.827 460.584 236.787C457.813 235.747 454.811 235.17 451.809 235.17H451.924Z" fill="#FAFAFA"/>
<path d="M715.874 332.195C711.718 332.195 708.138 330.924 705.252 328.383C702.25 325.727 700.749 322.377 700.749 318.565V148.54C700.749 144.613 702.365 141.148 705.367 138.491C710.909 133.756 720.146 133.525 726.151 138.491C729.384 141.148 731 144.613 731 148.656V318.681C731 322.492 729.384 325.842 726.497 328.499C723.61 331.04 720.146 332.31 715.874 332.31V332.195ZM715.874 145.191C713.68 145.191 712.757 145.884 712.064 146.346C711.371 146.923 711.14 147.501 711.14 148.425V318.45C711.14 319.143 711.371 319.72 712.179 320.529C712.757 320.991 713.68 321.684 715.874 321.684C718.068 321.684 718.992 320.991 719.569 320.529C720.493 319.72 720.608 319.143 720.608 318.45V148.425C720.608 147.732 720.493 147.039 719.569 146.346C718.53 145.537 717.375 145.191 715.874 145.191Z" fill="#FAFAFA"/>
<path d="M564.155 328.845C560.229 328.614 557.458 327.69 555.149 325.958C552.724 324.225 550.992 322.146 549.953 319.489L519.932 226.392C518.547 222.811 519.124 218.884 521.434 215.649C523.396 212.762 526.398 210.798 530.209 209.759C534.25 208.95 537.829 209.297 541.062 210.914C544.526 212.646 546.836 215.187 548.221 218.653L566.464 275.135L584.823 235.17C587.363 229.857 592.328 226.969 598.679 226.969C605.029 226.969 609.994 229.857 612.534 235.054L631.008 275.135L649.136 218.884C650.522 215.187 652.947 212.531 656.41 210.798C659.643 209.181 663.223 208.719 667.033 209.528C671.074 210.567 674.076 212.531 676.155 215.418C678.464 218.653 678.926 222.464 677.54 226.276L647.751 318.796C646.596 321.684 644.864 323.878 642.439 325.611C640.13 327.228 637.359 328.152 634.241 328.383C627.198 328.383 622.349 325.496 619.809 320.298L598.794 273.98L577.895 320.182C575.355 325.496 570.506 328.383 564.271 328.383L564.155 328.845ZM534.135 219.923C534.135 219.923 533.211 219.923 532.634 220.039C531.017 220.501 530.209 221.194 529.862 221.771C529.631 222.118 529.516 222.349 529.747 223.042L559.652 316.024C559.652 316.024 560.229 316.948 561.038 317.526C561.846 318.103 562.769 318.334 563.924 318.45C567.042 318.45 567.734 317.295 568.312 316.255L593.945 259.773C594.753 257.925 596.6 256.77 598.679 256.77C600.757 256.77 602.604 257.925 603.413 259.773L629.046 316.371C629.507 317.295 630.316 318.45 633.202 318.45C634.588 318.45 635.512 318.103 636.204 317.526C636.897 316.948 637.474 316.486 637.705 315.678L667.495 223.273C667.841 222.349 667.726 222.118 667.495 221.771C667.149 221.194 666.34 220.385 664.493 219.923C663.223 219.692 661.953 219.808 660.798 220.385C659.759 220.847 659.182 221.54 658.835 222.58L636.666 291.19C635.973 293.269 634.126 294.655 632.048 294.771C629.969 295.002 627.891 293.731 626.967 291.768L602.951 239.675C602.489 238.635 601.681 237.596 598.563 237.596C595.446 237.596 594.637 238.751 594.06 239.79L570.159 291.883C569.235 293.847 567.388 295.118 565.079 294.886C562.885 294.771 561.153 293.385 560.46 291.306L538.291 222.464C538.06 221.771 537.368 221.078 536.328 220.501C535.52 220.154 534.827 219.923 533.904 219.923H534.135Z" fill="#FAFAFA"/>
</svg>
