<svg width="20" height="21" viewBox="0 0 20 21" fill="none" xmlns="http://www.w3.org/2000/svg">
<path d="M16.6666 0.890015H3.335C1.49309 0.890015 0 2.3831 0 4.22501V20.0567C0 20.7727 0.843281 21.1553 1.38207 20.6838L7.5 15.3306L13.6179 20.6838C14.1568 21.1553 15 20.7726 15 20.0567V10.89H19.1667C19.6269 10.89 20 10.5169 20 10.0567V4.22333C20 2.38228 18.5077 0.890015 16.6666 0.890015ZM13.3333 18.2202L8.04875 13.5962C7.73457 13.3213 7.26543 13.3213 6.95125 13.5962L1.66664 18.2202V4.22501C1.66664 3.30357 2.41355 2.55669 3.33496 2.55669H13.7792C13.7672 2.57748 13.7557 2.59857 13.7441 2.61962C13.7403 2.62654 13.7364 2.63333 13.7326 2.64025C13.7102 2.68166 13.6888 2.72369 13.6681 2.76615C13.6632 2.77615 13.6586 2.78623 13.6538 2.79626C13.6357 2.83439 13.6182 2.87287 13.6016 2.91177C13.5988 2.9181 13.5959 2.92439 13.5933 2.93072C13.5748 2.97451 13.5575 3.01888 13.5409 3.06361C13.5369 3.07431 13.5331 3.08509 13.5292 3.09584C13.5145 3.13669 13.5005 3.17787 13.4874 3.21943C13.4856 3.22498 13.4837 3.23044 13.482 3.23599C13.4678 3.28189 13.4548 3.32833 13.4425 3.37509C13.4395 3.38646 13.4367 3.39787 13.4338 3.40927C13.4229 3.45302 13.4125 3.49708 13.4033 3.5415C13.4024 3.5458 13.4014 3.55001 13.4005 3.55431C13.3907 3.60212 13.3823 3.65044 13.3747 3.699C13.3728 3.71091 13.371 3.72287 13.3693 3.73482C13.3623 3.78185 13.3561 3.82908 13.3512 3.87669C13.351 3.87912 13.3506 3.8815 13.3504 3.88392C13.3454 3.93349 13.3418 3.98349 13.3389 4.03369C13.3382 4.04603 13.3377 4.05837 13.3371 4.07076C13.3348 4.12138 13.3332 4.17216 13.3332 4.22337V10.0567V18.2202H13.3333ZM18.3333 9.22333H15V4.22333C15 3.30275 15.7461 2.55666 16.6667 2.55666C17.5873 2.55666 18.3334 3.30271 18.3334 4.22333V9.22333H18.3333Z" fill="#3BC5BC"/>
<path d="M16.6666 0.890015H3.335C1.49309 0.890015 0 2.3831 0 4.22501V20.0567C0 20.7727 0.843281 21.1553 1.38207 20.6838L7.5 15.3306L13.6179 20.6838C14.1568 21.1553 15 20.7726 15 20.0567V10.89H19.1667C19.6269 10.89 20 10.5169 20 10.0567V4.22333C20 2.38228 18.5077 0.890015 16.6666 0.890015ZM13.3333 18.2202L8.04875 13.5962C7.73457 13.3213 7.26543 13.3213 6.95125 13.5962L1.66664 18.2202V4.22501C1.66664 3.30357 2.41355 2.55669 3.33496 2.55669H13.7792C13.7672 2.57748 13.7557 2.59857 13.7441 2.61962C13.7403 2.62654 13.7364 2.63333 13.7326 2.64025C13.7102 2.68166 13.6888 2.72369 13.6681 2.76615C13.6632 2.77615 13.6586 2.78623 13.6538 2.79626C13.6357 2.83439 13.6182 2.87287 13.6016 2.91177C13.5988 2.9181 13.5959 2.92439 13.5933 2.93072C13.5748 2.97451 13.5575 3.01888 13.5409 3.06361C13.5369 3.07431 13.5331 3.08509 13.5292 3.09584C13.5145 3.13669 13.5005 3.17787 13.4874 3.21943C13.4856 3.22498 13.4837 3.23044 13.482 3.23599C13.4678 3.28189 13.4548 3.32833 13.4425 3.37509C13.4395 3.38646 13.4367 3.39787 13.4338 3.40927C13.4229 3.45302 13.4125 3.49708 13.4033 3.5415C13.4024 3.5458 13.4014 3.55001 13.4005 3.55431C13.3907 3.60212 13.3823 3.65044 13.3747 3.699C13.3728 3.71091 13.371 3.72287 13.3693 3.73482C13.3623 3.78185 13.3561 3.82908 13.3512 3.87669C13.351 3.87912 13.3506 3.8815 13.3504 3.88392C13.3454 3.93349 13.3418 3.98349 13.3389 4.03369C13.3382 4.04603 13.3377 4.05837 13.3371 4.07076C13.3348 4.12138 13.3332 4.17216 13.3332 4.22337V10.0567V18.2202H13.3333ZM18.3333 9.22333H15V4.22333C15 3.30275 15.7461 2.55666 16.6667 2.55666C17.5873 2.55666 18.3334 3.30271 18.3334 4.22333V9.22333H18.3333Z" fill="#3BC5BC"/>
<path d="M16.6666 0.890015H3.335C1.49309 0.890015 0 2.3831 0 4.22501V20.0567C0 20.7727 0.843281 21.1553 1.38207 20.6838L7.5 15.3306L13.6179 20.6838C14.1568 21.1553 15 20.7726 15 20.0567V10.89H19.1667C19.6269 10.89 20 10.5169 20 10.0567V4.22333C20 2.38228 18.5077 0.890015 16.6666 0.890015ZM13.3333 18.2202L8.04875 13.5962C7.73457 13.3213 7.26543 13.3213 6.95125 13.5962L1.66664 18.2202V4.22501C1.66664 3.30357 2.41355 2.55669 3.33496 2.55669H13.7792C13.7672 2.57748 13.7557 2.59857 13.7441 2.61962C13.7403 2.62654 13.7364 2.63333 13.7326 2.64025C13.7102 2.68166 13.6888 2.72369 13.6681 2.76615C13.6632 2.77615 13.6586 2.78623 13.6538 2.79626C13.6357 2.83439 13.6182 2.87287 13.6016 2.91177C13.5988 2.9181 13.5959 2.92439 13.5933 2.93072C13.5748 2.97451 13.5575 3.01888 13.5409 3.06361C13.5369 3.07431 13.5331 3.08509 13.5292 3.09584C13.5145 3.13669 13.5005 3.17787 13.4874 3.21943C13.4856 3.22498 13.4837 3.23044 13.482 3.23599C13.4678 3.28189 13.4548 3.32833 13.4425 3.37509C13.4395 3.38646 13.4367 3.39787 13.4338 3.40927C13.4229 3.45302 13.4125 3.49708 13.4033 3.5415C13.4024 3.5458 13.4014 3.55001 13.4005 3.55431C13.3907 3.60212 13.3823 3.65044 13.3747 3.699C13.3728 3.71091 13.371 3.72287 13.3693 3.73482C13.3623 3.78185 13.3561 3.82908 13.3512 3.87669C13.351 3.87912 13.3506 3.8815 13.3504 3.88392C13.3454 3.93349 13.3418 3.98349 13.3389 4.03369C13.3382 4.04603 13.3377 4.05837 13.3371 4.07076C13.3348 4.12138 13.3332 4.17216 13.3332 4.22337V10.0567V18.2202H13.3333ZM18.3333 9.22333H15V4.22333C15 3.30275 15.7461 2.55666 16.6667 2.55666C17.5873 2.55666 18.3334 3.30271 18.3334 4.22333V9.22333H18.3333Z" fill="#3BC5BC"/>
<path d="M16.6666 0.890015H3.335C1.49309 0.890015 0 2.3831 0 4.22501V20.0567C0 20.7727 0.843281 21.1553 1.38207 20.6838L7.5 15.3306L13.6179 20.6838C14.1568 21.1553 15 20.7726 15 20.0567V10.89H19.1667C19.6269 10.89 20 10.5169 20 10.0567V4.22333C20 2.38228 18.5077 0.890015 16.6666 0.890015ZM13.3333 18.2202L8.04875 13.5962C7.73457 13.3213 7.26543 13.3213 6.95125 13.5962L1.66664 18.2202V4.22501C1.66664 3.30357 2.41355 2.55669 3.33496 2.55669H13.7792C13.7672 2.57748 13.7557 2.59857 13.7441 2.61962C13.7403 2.62654 13.7364 2.63333 13.7326 2.64025C13.7102 2.68166 13.6888 2.72369 13.6681 2.76615C13.6632 2.77615 13.6586 2.78623 13.6538 2.79626C13.6357 2.83439 13.6182 2.87287 13.6016 2.91177C13.5988 2.9181 13.5959 2.92439 13.5933 2.93072C13.5748 2.97451 13.5575 3.01888 13.5409 3.06361C13.5369 3.07431 13.5331 3.08509 13.5292 3.09584C13.5145 3.13669 13.5005 3.17787 13.4874 3.21943C13.4856 3.22498 13.4837 3.23044 13.482 3.23599C13.4678 3.28189 13.4548 3.32834 13.4425 3.37509C13.4395 3.38646 13.4367 3.39787 13.4338 3.40927C13.4229 3.45302 13.4125 3.49708 13.4033 3.5415C13.4024 3.5458 13.4014 3.55001 13.4005 3.55431C13.3907 3.60212 13.3823 3.65044 13.3747 3.699C13.3728 3.71091 13.371 3.72287 13.3693 3.73482C13.3623 3.78185 13.3561 3.82908 13.3512 3.87669C13.351 3.87912 13.3506 3.8815 13.3504 3.88392C13.3454 3.93349 13.3418 3.98349 13.3389 4.03369C13.3382 4.04603 13.3377 4.05837 13.3371 4.07076C13.3348 4.12138 13.3332 4.17216 13.3332 4.22337V10.0567L13.3333 18.2202ZM18.3333 9.22334H15V4.22333C15 3.30275 15.7461 2.55666 16.6667 2.55666C17.5873 2.55666 18.3334 3.30271 18.3334 4.22333L18.3333 9.22334Z" fill="#3BC5BC"/>
<path d="M13.3333 18.2202L8.04875 13.5962C7.73457 13.3213 7.26543 13.3213 6.95125 13.5962L1.66664 18.2202V4.22501C1.66664 3.30357 2.41355 2.55669 3.33496 2.55669H13.7792C13.7672 2.57748 13.7557 2.59857 13.7441 2.61962C13.7403 2.62654 13.7364 2.63333 13.7326 2.64025C13.7102 2.68166 13.6888 2.72369 13.6681 2.76615C13.6632 2.77615 13.6586 2.78623 13.6538 2.79626C13.6357 2.83439 13.6182 2.87287 13.6016 2.91177C13.5988 2.9181 13.5959 2.92439 13.5933 2.93072C13.5748 2.97451 13.5575 3.01888 13.5409 3.06361C13.5369 3.07431 13.5331 3.08509 13.5292 3.09584C13.5145 3.13669 13.5005 3.17787 13.4874 3.21943C13.4856 3.22498 13.4837 3.23044 13.482 3.23599C13.4678 3.28189 13.4548 3.32834 13.4425 3.37509C13.4395 3.38646 13.4367 3.39787 13.4338 3.40927C13.4229 3.45302 13.4125 3.49708 13.4033 3.5415C13.4024 3.5458 13.4014 3.55001 13.4005 3.55431C13.3907 3.60212 13.3823 3.65044 13.3747 3.699C13.3728 3.71091 13.371 3.72287 13.3693 3.73482C13.3623 3.78185 13.3561 3.82908 13.3512 3.87669L13.3504 3.88392C13.3454 3.93349 13.3418 3.98349 13.3389 4.03369C13.3382 4.04603 13.3377 4.05837 13.3371 4.07076C13.3348 4.12138 13.3332 4.17216 13.3332 4.22337V10.0567L13.3333 18.2202Z" fill="#3BC5BC"/>
</svg>
