<svg width="21" height="21" viewBox="0 0 21 21" fill="none" xmlns="http://www.w3.org/2000/svg">
<path d="M17.0263 0.851807H3.69462C1.85271 0.851807 0.359619 2.34489 0.359619 4.18681V20.0185C0.359619 20.7345 1.2029 21.1171 1.74169 20.6456L7.85962 15.2924L13.9775 20.6456C14.5164 21.1171 15.3596 20.7344 15.3596 20.0184V10.8518H19.5263C19.9865 10.8518 20.3596 10.4787 20.3596 10.0185V4.18513C20.3596 2.34407 18.8674 0.851807 17.0263 0.851807ZM13.6929 18.182L8.40837 13.558C8.09419 13.2831 7.62505 13.2831 7.31087 13.558L2.02626 18.182V4.18681C2.02626 3.26536 2.77317 2.51849 3.69458 2.51849H14.1388C14.1268 2.53927 14.1153 2.56036 14.1037 2.58142C14.0999 2.58833 14.096 2.59513 14.0922 2.60204C14.0699 2.64345 14.0484 2.68548 14.0277 2.72794C14.0229 2.73794 14.0182 2.74802 14.0134 2.75806C13.9953 2.79618 13.9779 2.83466 13.9612 2.87356C13.9584 2.87989 13.9556 2.88618 13.9529 2.89251C13.9345 2.9363 13.9171 2.98067 13.9005 3.0254C13.8965 3.0361 13.8927 3.04688 13.8888 3.05763C13.8742 3.09849 13.8601 3.13966 13.847 3.18122C13.8452 3.18677 13.8433 3.19224 13.8416 3.19778C13.8274 3.24368 13.8144 3.29013 13.8021 3.33688C13.7992 3.34825 13.7963 3.35966 13.7934 3.37106C13.7825 3.41481 13.7722 3.45888 13.7629 3.50329C13.762 3.50759 13.761 3.51181 13.7601 3.5161C13.7504 3.56392 13.742 3.61224 13.7343 3.66079C13.7324 3.67271 13.7306 3.68466 13.7289 3.69661C13.722 3.74364 13.7158 3.79087 13.7108 3.83849C13.7106 3.84091 13.7102 3.84329 13.71 3.84571C13.705 3.89528 13.7014 3.94528 13.6986 3.99548C13.6979 4.00782 13.6973 4.02017 13.6967 4.03255C13.6944 4.08317 13.6928 4.13396 13.6928 4.18517V10.0185V18.182H13.6929ZM18.6929 9.18513H15.3596V4.18513C15.3596 3.26454 16.1057 2.51845 17.0263 2.51845C17.9469 2.51845 18.693 3.2645 18.693 4.18513V9.18513H18.6929Z" fill="#C91717"/>
</svg>
