<svg width="25" height="24" viewBox="0 0 25 24" fill="none" xmlns="http://www.w3.org/2000/svg">
<path d="M1.19348 11.8447C1.19348 9.32735 1.19348 8.06873 1.77361 7.02539C2.35383 5.98195 3.41387 5.33439 5.53385 4.03927L7.76885 2.67386C10.0099 1.30483 11.1304 0.620361 12.3685 0.620361C13.6066 0.620361 14.7271 1.30483 16.9681 2.67386L19.2031 4.03927C21.3232 5.33439 22.3831 5.98195 22.9633 7.02539C23.5435 8.06873 23.5435 9.32735 23.5435 11.8447V13.5179C23.5435 17.8088 23.5435 19.9543 22.2343 21.2873C20.9251 22.6204 18.8178 22.6204 14.6035 22.6204H10.1335C5.91907 22.6204 3.81196 22.6204 2.50267 21.2873C1.19348 19.9543 1.19348 17.8088 1.19348 13.5179V11.8447Z" stroke="#C91717"/>
<path d="M9.01593 16.0203C9.96626 16.7136 11.122 17.1203 12.3685 17.1203C13.6149 17.1203 14.7707 16.7136 15.721 16.0203" stroke="#C91717" stroke-width="2" stroke-linecap="round"/>
</svg>
