<svg width="186" height="185" viewBox="0 0 186 185" fill="none" xmlns="http://www.w3.org/2000/svg">
<path d="M102.663 63.3799C101.173 65.4099 99.8232 67.2499 98.6832 68.7999C101.673 70.8899 105.063 72.6499 107.643 75.2299C110.243 77.8199 112.043 81.2199 114.323 84.4399C118.793 81.3999 124.243 80.1399 130.253 81.1099C130.573 80.4999 130.913 79.9099 131.203 79.2899C142.863 55.0799 154.513 30.8599 166.173 6.64991C168.833 1.12991 174.573 -0.830091 179.333 2.10991C183.543 4.71991 184.823 9.90991 182.253 14.4999C177.313 23.3399 172.293 32.1499 167.313 40.9699C158.973 55.7299 150.653 70.4999 142.273 85.2299C141.553 86.4899 141.803 87.1699 142.573 88.3299C144.233 90.8499 145.753 93.5399 146.853 96.3399C147.503 97.9899 148.133 98.7499 149.873 98.4399C150.183 98.3799 150.503 98.4399 150.823 98.4399C155.133 92.0999 157.933 85.2399 158.943 77.6499C159.603 72.7099 161.353 70.8399 166.843 68.5499C166.123 65.8599 163.663 65.5799 161.343 64.7199C161.933 62.7099 162.503 60.7299 163.093 58.6999C168.733 60.1299 172.673 62.9999 173.363 69.1199C173.413 69.5699 173.963 70.0299 174.383 70.3499C177.273 72.5399 178.833 75.4999 178.183 78.9999C177.183 84.3599 175.733 89.6399 174.353 94.9199C174.053 96.0499 173.243 97.0499 172.483 98.4399C174.563 98.4399 176.483 98.4399 178.403 98.4399C179.293 98.4399 180.193 98.4399 181.083 98.4399C183.723 98.4699 184.803 99.5199 184.793 102.15C184.763 112.09 182.823 121.67 178.833 130.76C168.323 154.72 149.953 170.13 125.653 178.78C111.133 183.95 96.1231 185.36 80.8131 183.49C59.7331 180.91 41.2231 172.7 25.8131 157.97C12.2731 145.02 3.97315 129.28 1.50315 110.63C1.12315 107.79 1.08315 104.91 1.01315 102.04C0.953148 99.5299 2.07315 98.4599 4.62315 98.4499C11.5131 98.4299 18.3931 98.4499 25.3531 98.4499C25.6131 97.3299 25.8531 96.2899 26.1331 95.0599C20.7631 93.4399 16.6531 90.2299 14.4931 84.9299C12.3631 79.6999 12.9031 74.5799 15.6331 69.7199C5.95315 60.1499 9.67315 44.9399 22.2331 40.7999C21.2531 31.1299 28.5731 20.4499 42.3731 21.9299C44.1131 11.2799 54.6432 5.21991 65.1331 8.75991C67.7831 4.53991 71.4632 1.72991 76.4432 0.719909C88.5732 -1.75009 99.1832 9.43991 96.0032 21.4099C95.6331 22.7899 95.2532 24.0299 97.1832 24.7999C97.4231 23.3299 97.5832 21.8599 97.9032 20.4199C100.313 9.34991 111.863 1.76991 122.613 4.09991C124.403 4.48991 125.363 5.40991 125.833 7.13991C129.873 22.0299 117.003 36.3499 101.793 33.8599C101.613 33.8299 101.423 33.8599 101.323 33.8599C101.133 35.9999 100.913 38.1199 100.783 40.2499C100.663 42.1299 102.663 43.9199 104.463 43.6199C119.063 41.1999 131.983 54.6899 128.823 69.0499C128.473 70.6599 127.493 71.5499 125.923 71.9999C117.853 74.2799 108.773 71.3199 103.633 64.6899C103.323 64.2899 103.013 63.8899 102.653 63.4299L102.663 63.3799ZM7.16315 104.63C7.28315 106.24 7.37315 107.7 7.51315 109.15C7.61315 110.23 7.75315 111.3 7.94315 112.37C11.1131 130.46 20.0431 145.23 33.9731 156.99C47.9531 168.79 64.2031 175.35 82.3431 177.4C97.4531 179.11 112.143 177.41 126.293 171.93C147.993 163.52 164.313 149.2 173.533 127.48C176.613 120.23 178.223 112.6 178.573 104.62H7.16315V104.63ZM64.8331 64.6599C64.3431 64.2399 64.1231 64.0099 63.8731 63.8199C60.7731 61.5299 60.6531 60.5799 62.9831 57.4899C65.6931 53.8899 66.0931 49.9699 64.0431 45.9899C61.9331 41.9099 58.3231 40.1599 53.8131 40.2299C50.8031 40.2799 50.1731 39.8099 49.5631 36.8499C48.2831 30.6499 42.6631 26.8099 36.8631 28.1699C30.5831 29.6499 27.2431 35.3999 28.9531 41.8099C29.6731 44.5199 28.7531 45.9299 26.0031 46.3599C20.8931 47.1499 17.6431 50.0399 16.5331 54.7799C15.5331 59.0699 17.3531 63.2099 21.5031 66.0799C23.6231 67.5399 23.9231 69.2599 22.3031 71.2399C19.3631 74.8399 18.6531 78.8299 20.6131 83.0199C22.5531 87.1599 26.0931 89.0499 30.6331 89.1699C33.5731 89.2499 34.7531 91.3999 33.3831 94.0199C32.6831 95.3499 32.1531 96.7599 31.4731 98.3099H46.4431C43.5331 82.1199 40.6431 66.0599 37.7431 49.9099C39.9531 49.5399 41.8731 49.2199 43.9331 48.8699C46.8931 65.4899 49.8231 81.8899 52.7431 98.3099H68.3732C68.5932 93.8299 67.0031 90.3799 63.3231 87.9599C59.7431 85.5999 59.7731 83.7499 63.3731 81.2699C64.4431 80.5299 65.3331 79.5399 66.2031 78.7499C64.0731 76.8199 62.0531 75.1699 60.2631 73.3099C58.5431 71.5199 58.7531 69.8399 60.6331 68.2099C61.9731 67.0499 63.3431 65.9199 64.8431 64.6599H64.8331ZM69.1631 60.3199C69.3431 60.3899 69.5132 60.4599 69.6932 60.5199C69.9032 60.3899 70.1432 60.2899 70.3332 60.1399C78.2032 53.5499 86.0832 46.9599 93.9332 40.3399C94.3432 39.9999 94.6832 39.4699 94.8332 38.9599C96.0132 34.9799 94.2632 30.1699 90.8232 27.8099C87.8332 25.7599 87.6531 25.1099 89.1631 21.8699C91.8131 16.1999 89.1731 9.54991 83.3932 7.32991C77.8632 5.19991 72.0232 7.85991 69.6532 13.5899C68.7831 15.6999 67.6631 16.5499 65.9931 16.1499C65.2031 15.9699 64.4731 15.5199 63.7431 15.1399C57.0331 11.6999 48.6831 16.1899 48.4231 23.4299C48.4031 24.0599 48.7631 24.9399 49.2431 25.3299C51.8631 27.4099 53.7331 29.9799 54.9731 33.0799C55.1431 33.5099 55.6831 34.0199 56.0931 34.0699C59.4531 34.4999 62.4732 35.7199 65.3032 37.8999C67.4832 33.7199 69.6031 29.6399 71.7831 25.4599C73.7331 26.4799 75.4532 27.3799 77.2632 28.3199C74.8832 32.9599 72.5532 37.4099 70.3332 41.9099C69.9932 42.5999 69.8432 43.6499 70.1132 44.3399C72.0532 49.2499 71.9332 54.0299 69.5732 58.7599C69.3332 59.2399 69.2932 59.8099 69.1532 60.3299L69.1631 60.3199ZM139.593 76.5999C139.673 76.6399 139.753 76.6799 139.833 76.7199C140.123 76.2799 140.433 75.8499 140.693 75.3899C152.643 54.2699 164.593 33.1499 176.543 12.0299C176.793 11.5899 177.053 11.1399 177.233 10.6699C177.803 9.18991 177.303 8.01991 176.013 7.23991C174.663 6.42991 173.423 6.79991 172.443 7.95991C172.043 8.43991 171.803 9.04991 171.523 9.62991C161.113 31.3899 150.713 53.1599 140.323 74.9299C140.063 75.4799 139.843 76.0499 139.593 76.6099V76.5999ZM114.553 98.3399H140.873C140.903 98.1999 140.943 98.1299 140.933 98.0699C139.373 92.5099 135.753 88.9199 130.223 87.4999C124.683 86.0699 119.783 87.5899 115.673 91.5499C115.353 91.8599 115.163 92.4099 115.103 92.8799C114.883 94.6399 114.733 96.4099 114.543 98.3399H114.553ZM97.0331 45.8899C95.9531 46.7799 95.1232 47.5899 94.1832 48.2199C92.7332 49.1899 92.4231 50.1799 92.9732 51.9999C94.9332 58.4199 90.8232 65.2999 84.3032 66.9799C80.5732 67.9399 77.1331 67.2499 73.9231 65.1599C71.5231 67.1999 69.2232 69.1499 66.3531 71.5899C69.0032 72.5799 71.0831 73.4099 73.2031 74.1199C73.5732 74.2399 74.2032 73.9799 74.5432 73.6999C78.8032 70.1599 83.7132 68.2899 89.2132 67.8899C89.8031 67.8499 90.4632 67.5999 90.9432 67.2599C94.0232 65.0499 96.3032 62.1999 97.6532 58.6399C99.2632 54.3799 99.2132 50.1999 97.0231 45.8799L97.0331 45.8899ZM158.873 97.5199C164.033 98.2599 167.443 96.3999 168.913 91.6199C170.203 87.4399 171.053 83.1299 171.983 78.8499C172.443 76.7299 171.253 74.9299 169.423 74.6499C167.073 74.2899 165.683 75.5099 165.203 77.9499C164.523 81.4399 163.863 84.9599 162.773 88.3299C161.773 91.4399 160.223 94.3799 158.863 97.5299L158.873 97.5199ZM115.913 55.5099C118.203 57.5899 120.323 59.5099 122.673 61.6499C120.923 53.3999 112.423 47.7899 105.283 49.8399C103.813 58.6299 111.923 66.3399 118.223 66.0599C116.003 63.9899 113.893 62.0299 111.733 60.0099C113.223 58.4099 114.513 57.0199 115.913 55.5099ZM119.983 10.0299C111.143 9.04991 103.863 16.4899 103.813 23.0299C105.913 20.7799 107.903 18.6599 109.953 16.4699C111.453 17.9099 112.873 19.2599 114.343 20.6699C112.323 22.8299 110.423 24.8599 108.383 27.0499C115.463 26.8099 121.393 17.9399 119.983 10.0299ZM94.9432 98.3399C94.9932 98.2499 95.0331 98.1599 95.0832 98.0699C87.5032 94.6799 79.9332 91.2799 72.5132 87.9599C73.3832 91.4999 74.2032 94.8499 75.0532 98.3399H94.9432ZM90.6132 84.4499C92.1731 80.9699 93.5332 77.9499 95.0532 74.5499H86.7632C88.0732 77.9299 89.2532 80.9699 90.6132 84.4499ZM100.743 76.8999C99.1931 80.3699 97.8732 83.3399 96.3032 86.8499C99.8832 85.4799 102.913 84.3099 106.403 82.9699C104.443 80.8699 102.743 79.0499 100.733 76.8999H100.743ZM98.5132 92.7299C101.973 94.2899 104.963 95.6399 108.343 97.1599V89.0099C105.113 90.2299 102.073 91.3799 98.5132 92.7299ZM74.8431 82.1599C78.3531 83.6699 81.3232 84.9499 84.7632 86.4399C83.3932 82.9299 82.2431 79.9599 80.9131 76.5399C78.8232 78.4799 76.9931 80.1699 74.8431 82.1599ZM87.0832 54.1499C84.2532 56.4899 81.7431 58.5699 79.1532 60.7099C82.9732 62.4199 86.5832 59.6099 87.0832 54.1499Z" fill="#C91717" stroke="#C91717" stroke-width="0.75" stroke-miterlimit="10"/>
</svg>
