<svg width="23" height="22" viewBox="0 0 23 22" fill="none" xmlns="http://www.w3.org/2000/svg">
<g clip-path="url(#clip0_94_3681)">
<path d="M12.9397 6.70055C12.9397 6.70055 13.0558 5.71165 13.1479 5.59955C13.24 5.48745 14.8455 2.96516 14.9335 2.85706C13.9967 2.50874 12.9838 2.32057 11.9268 2.32057C7.13845 2.31256 3.23891 6.21211 3.23891 11.0005C3.23891 12.9542 3.8875 14.7559 4.98049 16.2092C5.17267 16.009 5.36084 15.8128 5.55301 15.6127C6.89823 14.1874 8.24346 12.7621 9.59268 11.3368C9.6047 11.3248 9.6127 11.3127 9.62471 11.3007C9.84892 11.0525 10.0611 10.7963 10.2613 10.54L4.06766 10.496C4.31989 6.5324 7.50679 3.36552 11.4744 3.13731L11.5024 8.87453C11.5024 8.87453 11.5224 8.8465 11.5224 8.8425C11.7787 8.49018 12.0349 8.13786 12.2951 7.78554C12.2951 7.78554 12.8557 7.193 12.9357 6.69655L12.9397 6.70055Z" fill="#C91717"/>
<path d="M11.5345 14.2554C11.7947 13.863 12.059 13.4787 12.3272 13.0943L12.3593 18.8676C16.3709 18.6514 19.5858 15.4245 19.794 11.4128L13.6084 11.3688C13.8126 11.1005 14.0208 10.8363 14.233 10.5721C14.233 10.5721 15.398 8.73839 15.8504 8.77842C16.8393 8.8665 17.7041 7.49325 17.7041 7.49325C17.8723 7.25704 18.8091 6.16004 18.9693 5.92383C20.0022 7.35313 20.6148 9.10672 20.6148 11.0044C20.6148 15.7928 16.7192 19.6923 11.9269 19.6923C10.7858 19.6923 9.69683 19.4681 8.69592 19.0678C8.82404 18.8236 8.94815 18.5833 9.08027 18.3431" fill="#C91717"/>
<path d="M20.3225 3.90601C20.1704 4.14222 20.0223 4.37443 19.8661 4.60664C21.2794 6.35623 22.1282 8.58226 22.1282 11.0005C22.1282 16.6216 17.552 21.1977 11.9309 21.1977C10.4856 21.1977 9.11235 20.8934 7.86722 20.349C7.71108 20.5251 7.54293 20.7013 7.34675 20.8774C7.31472 20.9055 7.27869 20.9255 7.24666 20.9495C8.66795 21.6221 10.2574 21.9985 11.9309 21.9985C17.9964 21.9985 22.9289 17.066 22.9289 11.0005C22.9289 8.298 21.948 5.82375 20.3266 3.90601H20.3225Z" fill="#C91717"/>
<path d="M3.7514 17.6142C3.80745 17.5141 3.87151 17.422 3.93957 17.33C2.55831 15.5884 1.72556 13.3904 1.72556 11.0002C1.72956 5.37909 6.30572 0.802925 11.9268 0.802925C13.3561 0.802925 14.7134 1.09919 15.9505 1.63168C16.1266 1.41949 16.3108 1.20729 16.491 0.9951C15.1017 0.358521 13.5563 0.00219727 11.9268 0.00219727C5.86132 0.00219727 0.928833 4.93468 0.928833 11.0002C0.928833 13.7147 1.92174 16.2009 3.55522 18.1227C3.59926 17.9465 3.66332 17.7784 3.7514 17.6142Z" fill="#C91717"/>
<path d="M20.0102 2.30443C19.9501 2.31243 19.1934 3.22526 17.8402 4.9188C17.1195 5.83163 16.515 6.5723 16.483 6.57631C16.3989 6.58832 16.2427 6.41616 16.2788 6.3441C16.2948 6.30406 16.7552 5.65947 17.3037 4.90279C18.765 2.89696 19.4857 1.85201 19.4256 1.80397C19.3576 1.74392 18.4728 2.80088 16.8873 4.81871C16.3588 5.49533 15.8904 6.05984 15.8504 6.06384C15.7543 6.07585 15.6342 5.97176 15.6502 5.86766C15.6502 5.82362 16.0265 5.29514 16.491 4.70261C18.0684 2.62872 18.9252 1.41962 18.8571 1.36757C18.7891 1.31553 18.0484 2.17231 16.3829 4.20615C15.7983 4.92681 15.2819 5.54337 15.2458 5.56339C15.1858 5.61544 14.9816 5.50734 14.9656 5.40725C14.9616 5.37121 15.0777 5.20306 15.2218 5.0229C15.6662 4.45438 17.7321 1.68386 17.9883 1.30352C18.1245 1.10333 18.2205 0.923169 18.2045 0.911159C18.1365 0.843097 17.1516 1.9521 15.39 4.08204C13.6164 6.22799 13.6804 6.11989 13.7645 6.79651C13.8285 7.28896 13.7725 7.64128 13.5723 8.03363C13.4282 8.31789 11.4224 10.9803 10.4295 12.1974C9.34047 13.5466 8.11936 14.8398 6.56595 16.3172C4.48806 18.291 4.41599 18.359 4.29588 18.6193C4.18778 18.8395 4.17978 18.8995 4.23182 19.1838C4.33992 19.7883 4.81636 20.2808 5.40489 20.4249C5.76522 20.509 6.11754 20.4609 6.34975 20.3048C6.57395 20.1526 6.70207 19.9645 7.63091 18.2509C8.81599 16.0809 9.54465 14.8839 10.5296 13.4385C11.1942 12.4617 14.0207 8.84237 14.301 8.59815C14.6293 8.30588 14.9536 8.16575 15.446 8.10169C15.9024 8.04164 16.0746 7.95356 16.3508 7.62926C16.7272 7.18486 19.2535 3.61762 19.77 2.81289C20.0382 2.39651 20.0822 2.29241 20.0022 2.30443H20.0102Z" fill="#C91717"/>
</g>
<defs>
<clipPath id="clip0_94_3681">
<rect width="22" height="22" fill="white" transform="translate(0.928833 -0.00170898)"/>
</clipPath>
</defs>
</svg>
