<svg width="24" height="24" viewBox="0 0 24 24" fill="none" xmlns="http://www.w3.org/2000/svg">
<path d="M1.21741 12.0769C1.21741 9.55953 1.21741 8.3009 1.78845 7.25757C2.35959 6.21413 3.40303 5.56657 5.48981 4.27144L7.6898 2.90603C9.89574 1.537 10.9987 0.852539 12.2174 0.852539C13.4361 0.852539 14.5391 1.537 16.745 2.90603L18.945 4.27144C21.0319 5.56657 22.0752 6.21413 22.6463 7.25757C23.2174 8.3009 23.2174 9.55953 23.2174 12.0769V13.7501C23.2174 18.041 23.2174 20.1865 21.9287 21.5195C20.64 22.8525 18.5657 22.8525 14.4174 22.8525H10.0174C5.86899 22.8525 3.79488 22.8525 2.50609 21.5195C1.21741 20.1865 1.21741 18.041 1.21741 13.7501V12.0769Z" stroke="#C91717"/>
<path fill-rule="evenodd" clip-rule="evenodd" d="M22.6198 20.6139L20.7075 22.5072H3.73579L1.46493 20.6139L0.86731 13.869L1.46492 7.71577L6.24569 3.6925L12.1021 0.852539L18.0781 3.6925L23.2174 7.71575V14.6973L22.6198 20.6139ZM9.47788 15.5325C9.03261 15.2058 8.40678 15.3018 8.08004 15.7471C7.75331 16.1924 7.8494 16.8182 8.29467 17.1449C9.38916 17.9481 10.7278 18.4236 12.1736 18.4236C13.6193 18.4236 14.958 17.9481 16.0525 17.1449C16.4977 16.8182 16.5938 16.1924 16.2671 15.7471C15.9403 15.3018 15.3145 15.2058 14.8692 15.5325C14.1001 16.0969 13.1722 16.4236 12.1736 16.4236C11.1749 16.4236 10.247 16.0969 9.47788 15.5325Z" fill="#C91717"/>
</svg>
