<svg width="21" height="21" viewBox="0 0 21 21" fill="none" xmlns="http://www.w3.org/2000/svg">
<path fill-rule="evenodd" clip-rule="evenodd" d="M0.610038 6.76924C0.0908203 7.71779 0.0908203 8.86201 0.0908203 11.1504V12.6715C0.0908203 16.5723 0.0908203 18.5228 1.26242 19.7346C2.43393 20.9465 4.31956 20.9465 8.09082 20.9465H12.0908C15.862 20.9465 17.7477 20.9465 18.9192 19.7346C20.0908 18.5228 20.0908 16.5723 20.0908 12.6715V11.1504C20.0908 8.86201 20.0908 7.71779 19.5716 6.76932C19.0524 5.82077 18.1039 5.23208 16.2068 4.0547L14.2068 2.81345C12.2015 1.56881 11.1987 0.946533 10.0908 0.946533C8.98291 0.946533 7.98019 1.56881 5.97483 2.81337L3.97483 4.0547C2.07781 5.23208 1.12926 5.82077 0.610038 6.76924ZM7.53742 14.3441C7.20468 14.0973 6.73495 14.1671 6.48827 14.4999C6.24167 14.8328 6.3114 15.3024 6.64422 15.549C7.61659 16.2698 8.80579 16.6965 10.0908 16.6965C11.3759 16.6965 12.5651 16.2698 13.5374 15.549C13.8702 15.3024 13.9401 14.8328 13.6933 14.4999C13.4467 14.1671 12.977 14.0973 12.6442 14.3441C11.9158 14.8839 11.0367 15.1965 10.0908 15.1965C9.1449 15.1965 8.26582 14.8839 7.53742 14.3441Z" fill="#C91717"/>
</svg>
