<svg width="38" height="25" viewBox="0 0 38 25" fill="none" xmlns="http://www.w3.org/2000/svg">
<rect width="37.5" height="25" fill="#D9D9D9"/>
<path d="M17.1712 14.5795V14.4318C17.175 13.7462 17.2393 13.2008 17.3643 12.7955C17.4931 12.3902 17.675 12.0644 17.9098 11.8182C18.1446 11.5682 18.4306 11.339 18.7678 11.1307C18.9988 10.9867 19.2053 10.8295 19.3871 10.6591C19.5727 10.4848 19.7185 10.2917 19.8246 10.0795C19.9306 9.86364 19.9837 9.62311 19.9837 9.35795C19.9837 9.05871 19.9136 8.79924 19.7734 8.57955C19.6333 8.35985 19.4439 8.18939 19.2053 8.06818C18.9704 7.94697 18.7071 7.88636 18.4155 7.88636C18.1465 7.88636 17.8909 7.94508 17.6484 8.0625C17.4098 8.17614 17.2109 8.35038 17.0518 8.58523C16.8965 8.81629 16.8094 9.10985 16.7905 9.46591H14.7678C14.7867 8.74621 14.9609 8.14394 15.2905 7.65909C15.6238 7.17424 16.0632 6.81061 16.6087 6.56818C17.1579 6.32576 17.764 6.20455 18.4268 6.20455C19.1503 6.20455 19.7867 6.33144 20.3359 6.58523C20.889 6.83902 21.3189 7.20076 21.6257 7.67045C21.9363 8.13636 22.0916 8.68939 22.0916 9.32955C22.0916 9.76136 22.0215 10.1477 21.8814 10.4886C21.745 10.8295 21.55 11.1326 21.2962 11.3977C21.0424 11.6629 20.7412 11.8996 20.3928 12.108C20.0859 12.2973 19.834 12.4943 19.6371 12.6989C19.4439 12.9034 19.3 13.1439 19.2053 13.4205C19.1143 13.6932 19.067 14.0303 19.0632 14.4318V14.5795H17.1712ZM18.1598 18.125C17.8189 18.125 17.5253 18.0038 17.2791 17.7614C17.0329 17.5189 16.9098 17.2235 16.9098 16.875C16.9098 16.5341 17.0329 16.2424 17.2791 16C17.5253 15.7576 17.8189 15.6364 18.1598 15.6364C18.4969 15.6364 18.7886 15.7576 19.0348 16C19.2848 16.2424 19.4098 16.5341 19.4098 16.875C19.4098 17.1061 19.3511 17.3163 19.2337 17.5057C19.12 17.6951 18.9685 17.8466 18.7791 17.9602C18.5935 18.0701 18.3871 18.125 18.1598 18.125Z" fill="white"/>
</svg>
