<svg width="22" height="22" viewBox="0 0 22 22" fill="none" xmlns="http://www.w3.org/2000/svg">
<path fill-rule="evenodd" clip-rule="evenodd" d="M15.7094 0.562744H18.9949C20.3542 0.562744 21.4569 1.67502 21.4569 3.04718V6.3601C21.4569 7.73122 20.3542 8.84454 18.9949 8.84454H15.7094C14.3491 8.84454 13.2464 7.73122 13.2464 6.3601V3.04718C13.2464 1.67502 14.3491 0.562744 15.7094 0.562744ZM3.80453 0.562744H7.08894C8.44928 0.562744 9.55199 1.67502 9.55199 3.04718V6.3601C9.55199 7.73122 8.44928 8.84454 7.08894 8.84454H3.80453C2.44418 8.84454 1.34148 7.73122 1.34148 6.3601V3.04718C1.34148 1.67502 2.44418 0.562744 3.80453 0.562744ZM3.80453 12.3963H7.08894C8.44928 12.3963 9.55199 13.5086 9.55199 14.8818V18.1937C9.55199 19.5659 8.44928 20.6781 7.08894 20.6781H3.80453C2.44418 20.6781 1.34148 19.5659 1.34148 18.1937V14.8818C1.34148 13.5086 2.44418 12.3963 3.80453 12.3963ZM15.7094 12.3963H18.9949C20.3542 12.3963 21.4569 13.5086 21.4569 14.8818V18.1937C21.4569 19.5659 20.3542 20.6781 18.9949 20.6781H15.7094C14.3491 20.6781 13.2464 19.5659 13.2464 18.1937V14.8818C13.2464 13.5086 14.3491 12.3963 15.7094 12.3963Z" stroke="#C91717" stroke-linecap="round" stroke-linejoin="round"/>
</svg>
