<svg width="23" height="23" viewBox="0 0 23 23" fill="none" xmlns="http://www.w3.org/2000/svg">
<g clip-path="url(#clip0_94_3805)">
<path d="M3.23936 11.6204C3.23936 13.5745 3.88807 15.3765 4.98126 16.8301C5.17347 16.6299 5.36168 16.4336 5.55389 16.2334C4.66492 15.0121 4.11632 13.5265 4.05626 11.9167L9.5943 11.9568C9.5943 11.9568 9.61432 11.9327 9.62633 11.9207C9.84657 11.6764 10.0548 11.4202 10.263 11.1599L4.06827 11.1158C4.32054 7.15151 7.50802 3.98406 11.4764 3.75581L11.5044 9.49407C11.5044 9.49407 11.5204 9.47405 11.5244 9.46203C11.7807 9.10965 12.037 8.75326 12.2972 8.40488L12.2732 3.7478C13.01 3.77983 13.7188 3.91598 14.3915 4.13622C14.5717 3.91198 14.7519 3.69174 14.9361 3.46749C13.9991 3.11911 12.986 2.93091 11.9288 2.93091C7.13962 2.93091 3.23936 6.83116 3.23936 11.6204Z" fill="#C91717"/>
<path d="M20.6183 11.6204C20.6183 9.7263 20.0057 7.96838 18.9725 6.53882C18.8083 6.77508 18.6402 7.01133 18.476 7.24759C19.2448 8.39685 19.7253 9.75833 19.7974 11.2279L14.2314 11.1879C14.0191 11.4522 13.8149 11.7165 13.6067 11.9848L19.7934 12.0288C19.5852 16.0452 16.3697 19.2687 12.3573 19.4849L12.3253 13.7106C12.053 14.0951 11.7887 14.4795 11.5324 14.8719L11.5564 19.4849C10.6835 19.4449 9.85458 19.2527 9.07773 18.9524C8.94959 19.1926 8.82145 19.4369 8.69331 19.6772C9.69441 20.0776 10.7836 20.3018 11.9248 20.3018C16.7141 20.3018 20.6143 16.4056 20.6143 11.6124L20.6183 11.6204Z" fill="#C91717"/>
<path d="M20.326 4.52466C20.1738 4.76092 20.0257 4.99317 19.8695 5.22542C21.2831 6.97533 22.132 9.20176 22.132 11.6204C22.132 17.2425 17.555 21.8195 11.9329 21.8195C10.4873 21.8195 9.11378 21.5152 7.86842 20.9706C7.71225 21.1468 7.54407 21.323 7.34785 21.4992C7.31582 21.5272 7.27978 21.5472 7.24774 21.5713C8.66929 22.244 10.259 22.6204 11.9329 22.6204C17.9995 22.6204 22.9329 17.687 22.9329 11.6204C22.9329 8.91745 21.9518 6.44275 20.33 4.52466H20.326Z" fill="#C91717"/>
<path d="M3.75193 18.2356C3.80799 18.1355 3.87206 18.0434 3.94013 17.9513C2.55863 16.2094 1.72572 14.011 1.72572 11.6204C1.72972 5.99823 6.30672 1.42124 11.9288 1.42124C13.3584 1.42124 14.7159 1.71756 15.9532 2.25014C16.1294 2.03791 16.3136 1.82568 16.4938 1.61344C15.1043 0.97675 13.5586 0.620361 11.9288 0.620361C5.86223 0.620361 0.928848 5.55374 0.928848 11.6204C0.928848 14.3353 1.92193 16.822 3.55571 18.7441C3.59976 18.5679 3.66383 18.3998 3.75193 18.2356Z" fill="#C91717"/>
<path d="M20.0137 2.92284C19.9536 2.93085 19.1968 3.84385 17.8433 5.5377C17.1225 6.45069 16.5179 7.1915 16.4858 7.1955C16.4017 7.20752 16.2456 7.03533 16.2816 6.96325C16.2976 6.92321 16.7581 6.2785 17.3067 5.52168C18.7683 3.51549 19.4891 2.47035 19.429 2.4223C19.361 2.36223 18.476 3.41938 16.8903 5.43759C16.3617 6.11432 15.8932 6.67894 15.8531 6.68295C15.757 6.69496 15.6369 6.59084 15.6529 6.48673C15.6529 6.44268 16.0293 5.91411 16.4938 5.32146C18.0716 3.2472 18.9285 2.03788 18.8604 1.98582C18.7923 1.93376 18.0515 2.7907 16.3857 4.82492C15.8011 5.5457 15.2845 6.16238 15.2485 6.1824C15.1884 6.23446 14.9842 6.12634 14.9682 6.02623C14.9642 5.99019 15.0803 5.82201 15.2244 5.64181C15.6689 5.07319 17.7352 2.30217 17.9915 1.92175C18.1276 1.72153 18.2237 1.54134 18.2077 1.52932C18.1396 1.46125 17.1546 2.57046 15.3926 4.70078C13.6187 6.84712 13.6828 6.73901 13.7669 7.41574C13.8309 7.90828 13.7749 8.26067 13.5746 8.65309C13.4305 8.9374 11.4243 11.6003 10.4312 12.8176C9.34203 14.1671 8.1207 15.4605 6.567 16.9381C4.48873 18.9123 4.41666 18.9804 4.29653 19.2406C4.18841 19.4609 4.1804 19.5209 4.23246 19.8053C4.34057 20.4099 4.81709 20.9025 5.40574 21.0466C5.76613 21.1307 6.11851 21.0827 6.35077 20.9265C6.57501 20.7743 6.70315 20.5861 7.63216 18.8722C8.81746 16.7019 9.54625 15.5046 10.5313 14.059C11.1961 13.0819 14.0231 9.46198 14.3034 9.21771C14.6318 8.92539 14.9562 8.78524 15.4487 8.72117C15.9052 8.6611 16.0774 8.57301 16.3537 8.24865C16.7301 7.80417 19.2568 4.23628 19.7734 3.4314C20.0417 3.01494 20.0858 2.91083 20.0057 2.92284H20.0137Z" fill="#C91717"/>
</g>
<defs>
<clipPath id="clip0_94_3805">
<rect width="22" height="22" fill="white" transform="translate(0.928848 0.620361)"/>
</clipPath>
</defs>
</svg>
