<svg width="24" height="24" viewBox="0 0 24 24" fill="none" xmlns="http://www.w3.org/2000/svg">
<path fill-rule="evenodd" clip-rule="evenodd" d="M16.2977 2.40259H19.5643C20.9158 2.40259 22.0122 3.50849 22.0122 4.87277V8.16669C22.0122 9.52994 20.9158 10.6369 19.5643 10.6369H16.2977C14.9452 10.6369 13.8488 9.52994 13.8488 8.16669V4.87277C13.8488 3.50849 14.9452 2.40259 16.2977 2.40259ZM4.46113 2.40259H7.7267C9.07924 2.40259 10.1756 3.50849 10.1756 4.87277V8.16669C10.1756 9.52994 9.07924 10.6369 7.7267 10.6369H4.46113C3.10859 10.6369 2.01221 9.52994 2.01221 8.16669V4.87277C2.01221 3.50849 3.10859 2.40259 4.46113 2.40259ZM4.46113 14.1683H7.7267C9.07924 14.1683 10.1756 15.2742 10.1756 16.6395V19.9324C10.1756 21.2967 9.07924 22.4026 7.7267 22.4026H4.46113C3.10859 22.4026 2.01221 21.2967 2.01221 19.9324V16.6395C2.01221 15.2742 3.10859 14.1683 4.46113 14.1683ZM16.2977 14.1683H19.5643C20.9158 14.1683 22.0122 15.2742 22.0122 16.6395V19.9324C22.0122 21.2967 20.9158 22.4026 19.5643 22.4026H16.2977C14.9452 22.4026 13.8488 21.2967 13.8488 19.9324V16.6395C13.8488 15.2742 14.9452 14.1683 16.2977 14.1683Z" stroke="#C91717" stroke-width="3" stroke-linecap="round" stroke-linejoin="round"/>
</svg>
