<svg width="35" height="35" viewBox="0 0 35 35" fill="none" xmlns="http://www.w3.org/2000/svg">
<path fill-rule="evenodd" clip-rule="evenodd" d="M24.0856 1.06494H29.3125C31.475 1.06494 33.2293 2.83447 33.2293 5.01745V10.288C33.2293 12.4693 31.475 14.2405 29.3125 14.2405H24.0856C21.9214 14.2405 20.1671 12.4693 20.1671 10.288V5.01745C20.1671 2.83447 21.9214 1.06494 24.0856 1.06494ZM5.14603 1.06494H10.3712C12.5354 1.06494 14.2897 2.83447 14.2897 5.01745V10.288C14.2897 12.4693 12.5354 14.2405 10.3712 14.2405H5.14603C2.98184 14.2405 1.22754 12.4693 1.22754 10.288V5.01745C1.22754 2.83447 2.98184 1.06494 5.14603 1.06494ZM5.14603 19.8911H10.3712C12.5354 19.8911 14.2897 21.6607 14.2897 23.8453V29.1142C14.2897 31.2972 12.5354 33.0667 10.3712 33.0667H5.14603C2.98184 33.0667 1.22754 31.2972 1.22754 29.1142V23.8453C1.22754 21.6607 2.98184 19.8911 5.14603 19.8911ZM24.0856 19.8911H29.3125C31.475 19.8911 33.2293 21.6607 33.2293 23.8453V29.1142C33.2293 31.2972 31.475 33.0667 29.3125 33.0667H24.0856C21.9214 33.0667 20.1671 31.2972 20.1671 29.1142V23.8453C20.1671 21.6607 21.9214 19.8911 24.0856 19.8911Z" stroke="#C91717" stroke-width="2" stroke-linecap="round" stroke-linejoin="round"/>
</svg>
