<svg width="38" height="38" viewBox="0 0 38 38" fill="none" xmlns="http://www.w3.org/2000/svg">
<path d="M1.43701 19.6633C1.43701 15.6584 1.43701 13.6561 2.34549 11.9962C3.25412 10.3362 4.91414 9.30598 8.23401 7.24556L11.734 5.07332C15.2434 2.89532 16.9982 1.8064 18.937 1.8064C20.8759 1.8064 22.6306 2.89532 26.14 5.07332L29.64 7.24556C32.96 9.30598 34.6199 10.3362 35.5284 11.9962C36.437 13.6561 36.437 15.6584 36.437 19.6633V22.3252C36.437 29.1516 36.437 32.5649 34.3868 34.6857C32.3366 36.8064 29.0366 36.8064 22.437 36.8064H15.437C8.83726 36.8064 5.53754 36.8064 3.4872 34.6857C1.43701 32.5649 1.43701 29.1516 1.43701 22.3252V19.6633Z" stroke="#C91717" stroke-width="2"/>
<path fill-rule="evenodd" clip-rule="evenodd" d="M35.6207 33.203L32.5665 36.2572H5.46122L1.83445 33.203L0.880005 22.3227L1.83444 12.3968L9.46973 5.90687L18.823 1.32568L28.3671 5.90687L36.5751 12.3968V23.6589L35.6207 33.203ZM14.4313 25.3022C13.8766 24.8911 13.0938 25.0075 12.6827 25.5621C12.2716 26.1167 12.388 26.8996 12.9427 27.3106C14.6342 28.5643 16.7025 29.3065 18.937 29.3065C21.1716 29.3065 23.2399 28.5643 24.9314 27.3106C25.4861 26.8996 25.6024 26.1167 25.1914 25.5621C24.7803 25.0075 23.9974 24.8911 23.4428 25.3022C22.1579 26.2545 20.6064 26.8065 18.937 26.8065C17.2677 26.8065 15.7162 26.2545 14.4313 25.3022Z" fill="#C91717"/>
</svg>
