<svg width="35" height="35" viewBox="0 0 35 35" fill="none" xmlns="http://www.w3.org/2000/svg">
<path d="M3.80017 17.0658C3.80017 20.0858 4.80272 22.8707 6.4922 25.1171C6.78925 24.8077 7.08011 24.5045 7.37716 24.195C6.0033 22.3075 5.15547 20.0116 5.06264 17.5237L13.6214 17.5856C13.6214 17.5856 13.6524 17.5485 13.6709 17.5299C14.0113 17.1524 14.3331 16.7564 14.6549 16.3541L5.0812 16.286C5.47108 10.1593 10.3972 5.26419 16.5301 4.91144L16.5734 13.7797C16.5734 13.7797 16.5981 13.7487 16.6043 13.7302C17.0004 13.1856 17.3965 12.6348 17.7987 12.0964L17.7616 4.89906C18.9003 4.94857 19.9957 5.15898 21.0353 5.49936C21.3138 5.1528 21.5923 4.81243 21.877 4.46587C20.4289 3.92746 18.8631 3.6366 17.2294 3.6366C9.82784 3.6366 3.80017 9.66426 3.80017 17.0658Z" fill="#C91717"/>
<path d="M30.6586 17.0658C30.6586 14.1386 29.7117 11.4218 28.1151 9.21252C27.8613 9.57765 27.6014 9.94278 27.3477 10.3079C28.5359 12.084 29.2785 14.1881 29.3899 16.4593L20.7878 16.3975C20.4598 16.8059 20.1442 17.2143 19.8224 17.629L29.3837 17.6971C29.0619 23.9042 24.0925 28.886 17.8915 29.2202L17.842 20.2963C17.4212 20.8904 17.0128 21.4845 16.6167 22.0909L16.6538 29.2202C15.3047 29.1583 14.0237 28.8612 12.8231 28.3971C12.6251 28.7684 12.427 29.1459 12.229 29.5172C13.7761 30.1361 15.4594 30.4826 17.2232 30.4826C24.6247 30.4826 30.6524 24.4612 30.6524 17.0534L30.6586 17.0658Z" fill="#C91717"/>
<path d="M30.2067 6.09961C29.9716 6.46473 29.7426 6.82367 29.5012 7.18261C31.6858 9.88701 32.9978 13.3279 32.9978 17.0658C32.9978 25.7545 25.9242 32.828 17.2355 32.828C15.0014 32.828 12.8787 32.3577 10.9541 31.5161C10.7127 31.7884 10.4528 32.0607 10.1496 32.333C10.1001 32.3763 10.0444 32.4072 9.99487 32.4444C12.1918 33.484 14.6487 34.0658 17.2355 34.0658C26.6112 34.0658 34.2355 26.4414 34.2355 17.0658C34.2355 12.8885 32.7193 9.06393 30.2129 6.09961H30.2067Z" fill="#C91717"/>
<path d="M4.59231 27.2893C4.67895 27.1346 4.77797 26.9923 4.88317 26.8499C2.74812 24.1579 1.4609 20.7604 1.4609 17.0658C1.46708 8.37704 8.54062 1.30351 17.2294 1.30351C19.4387 1.30351 21.5366 1.76146 23.4489 2.58454C23.7212 2.25655 24.0059 1.92856 24.2843 1.60056C22.1369 0.616579 19.7481 0.0657959 17.2294 0.0657959C7.85369 0.0657959 0.22937 7.69011 0.22937 17.0658C0.22937 21.2616 1.76414 25.1047 4.28907 28.0753C4.35715 27.803 4.45616 27.543 4.59231 27.2893Z" fill="#C91717"/>
<path d="M29.7241 3.62425C29.6313 3.63663 28.4617 5.04763 26.3699 7.66539C25.256 9.07638 24.3215 10.2213 24.272 10.2275C24.142 10.246 23.9007 9.97992 23.9564 9.86852C23.9811 9.80664 24.6928 8.81028 25.5407 7.64064C27.7995 4.54016 28.9134 2.92495 28.8206 2.85068C28.7154 2.75786 27.3477 4.39164 24.897 7.51068C24.0802 8.55654 23.3561 9.42913 23.2942 9.43532C23.1457 9.45389 22.96 9.29298 22.9848 9.13208C22.9848 9.06401 23.5665 8.24712 24.2844 7.33121C26.7227 4.12553 28.047 2.25658 27.9418 2.17613C27.8366 2.09568 26.6917 3.42003 24.1173 6.56383C23.2138 7.67777 22.4154 8.63081 22.3597 8.66175C22.2669 8.7422 21.9513 8.57511 21.9265 8.4204C21.9203 8.3647 22.0998 8.10478 22.3226 7.82629C23.0095 6.94752 26.2028 2.66503 26.5989 2.07711C26.8093 1.76768 26.9578 1.4892 26.9331 1.47063C26.8279 1.36543 25.3055 3.07966 22.5825 6.37198C19.841 9.68905 19.94 9.52196 20.07 10.5678C20.169 11.329 20.0823 11.8736 19.7729 12.4801C19.5501 12.9195 16.4496 17.0349 14.9149 18.9162C13.2316 21.0018 11.3441 23.0007 8.94291 25.2842C5.73105 28.3352 5.61965 28.4404 5.43399 28.8427C5.2669 29.183 5.25453 29.2759 5.33498 29.7153C5.50207 30.6497 6.23851 31.4109 7.14823 31.6337C7.7052 31.7637 8.24979 31.6894 8.60873 31.4481C8.95529 31.2129 9.15332 30.922 10.5891 28.2733C12.4209 24.9191 13.5472 23.0687 15.0696 20.8347C16.0969 19.3247 20.466 13.7302 20.8992 13.3527C21.4067 12.9009 21.908 12.6843 22.6692 12.5853C23.3747 12.4925 23.6408 12.3563 24.0678 11.8551C24.6495 11.1681 28.5545 5.65411 29.3528 4.4102C29.7674 3.76659 29.8355 3.60569 29.7118 3.62425H29.7241Z" fill="#C91717"/>
</svg>
