<svg width="21" height="21" viewBox="0 0 21 21" fill="none" xmlns="http://www.w3.org/2000/svg">
<path d="M2.67725 10.066C2.67725 11.8425 3.26698 13.4807 4.26079 14.8021C4.43553 14.6201 4.60662 14.4417 4.78136 14.2597C3.97321 13.1494 3.47448 11.7988 3.41987 10.3354L8.45446 10.3718C8.45446 10.3718 8.47266 10.35 8.48358 10.3391C8.6838 10.117 8.8731 9.88401 9.06239 9.64739L3.4308 9.60735C3.66014 6.00342 6.55784 3.12391 10.1654 2.91641L10.1909 8.13301C10.1909 8.13301 10.2055 8.11481 10.2091 8.10389C10.4421 7.78354 10.6751 7.45955 10.9117 7.14284L10.8898 2.90913C11.5597 2.93825 12.204 3.06203 12.8156 3.26224C12.9794 3.05839 13.1432 2.85817 13.3107 2.65431C12.4588 2.3376 11.5378 2.1665 10.5768 2.1665C6.22293 2.1665 2.67725 5.71219 2.67725 10.066Z" fill="#C91717"/>
<path d="M18.4763 10.0659C18.4763 8.344 17.9193 6.74589 16.9801 5.44629C16.8309 5.66107 16.678 5.87585 16.5287 6.09063C17.2277 7.1354 17.6645 8.37312 17.73 9.70912L12.67 9.67272C12.477 9.91298 12.2914 10.1532 12.1021 10.3971L17.7264 10.4372C17.5371 14.0884 14.6139 17.0189 10.9663 17.2155L10.9372 11.9661C10.6896 12.3156 10.4494 12.6651 10.2164 13.0218L10.2382 17.2155C9.44462 17.1791 8.69107 17.0044 7.98485 16.7313C7.86836 16.9497 7.75187 17.1718 7.63538 17.3902C8.54546 17.7543 9.53563 17.9581 10.5731 17.9581C14.927 17.9581 18.4727 14.4161 18.4727 10.0586L18.4763 10.0659Z" fill="#C91717"/>
<path d="M18.2106 3.61523C18.0723 3.83001 17.9376 4.04115 17.7956 4.25229C19.0807 5.84312 19.8524 7.86715 19.8524 10.0659C19.8524 15.1769 15.6915 19.3378 10.5805 19.3378C9.26632 19.3378 8.01769 19.0612 6.88554 18.5661C6.74357 18.7263 6.59067 18.8864 6.4123 19.0466C6.38318 19.0721 6.35041 19.0903 6.32129 19.1121C7.61361 19.7237 9.05882 20.0659 10.5805 20.0659C16.0956 20.0659 20.5805 15.581 20.5805 10.0659C20.5805 7.60868 19.6886 5.35895 18.2143 3.61523H18.2106Z" fill="#C91717"/>
<path d="M3.14322 16.0798C3.19418 15.9887 3.25243 15.905 3.31431 15.8213C2.0584 14.2377 1.30121 12.2392 1.30121 10.0659C1.30485 4.95489 5.46575 0.793985 10.5768 0.793985C11.8764 0.793985 13.1105 1.06337 14.2353 1.54753C14.3955 1.3546 14.5629 1.16166 14.7268 0.968721C13.4636 0.389908 12.0584 0.065918 10.5768 0.065918C5.06168 0.065918 0.576782 4.55081 0.576782 10.0659C0.576782 12.5341 1.47959 14.7947 2.96484 16.5421C3.00489 16.3819 3.06313 16.229 3.14322 16.0798Z" fill="#C91717"/>
<path d="M17.9266 2.15917C17.872 2.16645 17.184 2.99645 15.9536 4.53631C15.2983 5.36631 14.7486 6.03977 14.7195 6.04341C14.643 6.05433 14.5011 5.8978 14.5338 5.83227C14.5484 5.79587 14.967 5.20977 15.4658 4.52175C16.7945 2.69794 17.4497 1.74781 17.3951 1.70413C17.3332 1.64953 16.5287 2.61057 15.0872 4.4453C14.6066 5.06052 14.1807 5.57381 14.1443 5.57745C14.0569 5.58837 13.9477 5.49372 13.9623 5.39907C13.9623 5.35903 14.3045 4.8785 14.7268 4.33973C16.1611 2.45404 16.9401 1.35466 16.8782 1.30733C16.8163 1.26001 16.1429 2.03904 14.6285 3.88833C14.097 4.54359 13.6274 5.1042 13.5946 5.12241C13.54 5.16973 13.3544 5.07144 13.3398 4.98043C13.3362 4.94767 13.4417 4.79478 13.5728 4.63096C13.9769 4.11403 15.8553 1.59492 16.0883 1.24909C16.212 1.06707 16.2994 0.903257 16.2848 0.892336C16.2229 0.83045 15.3274 1.83882 13.7257 3.77548C12.113 5.7267 12.1712 5.62841 12.2477 6.24363C12.3059 6.69139 12.255 7.01174 12.073 7.36849C11.9419 7.62696 10.1181 10.0478 9.2153 11.1544C8.22513 12.3812 7.11482 13.5571 5.70237 14.9003C3.81304 16.695 3.74751 16.7569 3.6383 16.9935C3.54001 17.1938 3.53273 17.2484 3.58006 17.5068C3.67835 18.0565 4.11155 18.5043 4.64668 18.6353C4.97431 18.7118 5.29466 18.6681 5.5058 18.5261C5.70965 18.3878 5.82615 18.2167 6.6707 16.6586C7.74824 14.6856 8.41078 13.5971 9.30631 12.2829C9.9106 11.3947 12.4807 8.10384 12.7355 7.88178C13.034 7.61603 13.3289 7.48862 13.7766 7.43038C14.1916 7.37577 14.3482 7.29568 14.5994 7.00082C14.9415 6.59674 17.2386 3.3532 17.7082 2.62149C17.9521 2.2429 17.9921 2.14825 17.9193 2.15917H17.9266Z" fill="#C91717"/>
</svg>
