<svg width="19" height="18" viewBox="0 0 19 18" fill="none" xmlns="http://www.w3.org/2000/svg">
<path d="M12.0234 10.1669H18.4467V3.92722C18.4467 2.21131 17.0015 0.807373 15.2351 0.807373C13.4687 0.807373 12.0234 2.21131 12.0234 3.92722V10.1669Z" stroke="#C91717" stroke-miterlimit="10" stroke-linejoin="round"/>
<path d="M15.2351 0.807373H3.99424C2.22782 0.807373 0.782569 2.21131 0.782569 3.92722V17.1866L6.40299 14.0667L12.0234 17.1866V10.1669" stroke="#C91717" stroke-miterlimit="10" stroke-linejoin="round"/>
<path d="M3.63312 0.918048C0.583152 1.33694 0.5218 4.23412 0.87237 5.63035V17.0186L6.65681 14.1388L12.1783 17.0186V15.8405V8.90264C12.1783 8.90264 11.9154 0.918079 12.8356 0.918073C10.6884 0.743536 6.6831 0.499161 3.63312 0.918048Z" fill="#C91717"/>
</svg>
