<svg width="21" height="21" viewBox="0 0 21 21" fill="none" xmlns="http://www.w3.org/2000/svg">
<path d="M17.1481 0.894287H3.81645C1.97453 0.894287 0.481445 2.38737 0.481445 4.22929V20.061C0.481445 20.7769 1.32473 21.1596 1.86352 20.6881L7.98145 15.3349L14.0994 20.6881C14.6382 21.1596 15.4814 20.7769 15.4814 20.0609V10.8943H19.6481C20.1084 10.8943 20.4814 10.5212 20.4814 10.061V4.22761C20.4814 2.38655 18.9892 0.894287 17.1481 0.894287ZM13.8148 18.2245L8.5302 13.6005C8.21602 13.3255 7.74688 13.3255 7.4327 13.6005L2.14809 18.2245V4.22929C2.14809 3.30784 2.895 2.56097 3.81641 2.56097H14.2606C14.2486 2.58175 14.2371 2.60284 14.2255 2.6239C14.2218 2.63081 14.2178 2.63761 14.2141 2.64452C14.1917 2.68593 14.1702 2.72796 14.1496 2.77042C14.1447 2.78042 14.14 2.7905 14.1352 2.80054C14.1171 2.83866 14.0997 2.87714 14.083 2.91604C14.0803 2.92237 14.0774 2.92866 14.0747 2.93499C14.0563 2.97878 14.0389 3.02315 14.0223 3.06788C14.0184 3.07858 14.0145 3.08937 14.0107 3.10011C13.996 3.14097 13.982 3.18214 13.9688 3.2237C13.9671 3.22925 13.9652 3.23472 13.9634 3.24026C13.9492 3.28616 13.9362 3.33261 13.9239 3.37937C13.921 3.39073 13.9181 3.40214 13.9153 3.41354C13.9043 3.45729 13.894 3.50136 13.8848 3.54577C13.8839 3.55007 13.8828 3.55429 13.882 3.55858C13.8722 3.6064 13.8638 3.65472 13.8561 3.70327C13.8543 3.71519 13.8525 3.72714 13.8507 3.73909C13.8438 3.78612 13.8376 3.83335 13.8327 3.88097C13.8324 3.88339 13.8321 3.88577 13.8318 3.88819C13.8268 3.93776 13.8232 3.98776 13.8204 4.03796C13.8197 4.0503 13.8191 4.06265 13.8185 4.07503C13.8163 4.12565 13.8146 4.17644 13.8146 4.22765V10.061V18.2245H13.8148ZM18.8148 9.22761H15.4814V4.22761C15.4814 3.30702 16.2275 2.56093 17.1481 2.56093C18.0687 2.56093 18.8148 3.30698 18.8148 4.22761V9.22761H18.8148Z" fill="#C91717"/>
<path d="M4.17461 1.65015C2.80937 1.45509 1.43874 2.97749 0.924072 3.76307L1.57418 19.772L7.994 14.4899L14.4138 19.2031V3.76307L14.9014 1.65015C12.1926 1.73143 5.53984 1.84522 4.17461 1.65015Z" fill="#C91717"/>
</svg>
