<svg width="21" height="21" viewBox="0 0 21 21" fill="none" xmlns="http://www.w3.org/2000/svg">
<g clip-path="url(#clip0_68_2570)">
<path d="M11.1502 6.15612C11.1502 6.15612 11.2558 5.25696 11.3395 5.15503C11.4233 5.0531 12.883 2.75969 12.9631 2.6614C12.1113 2.34469 11.1903 2.1736 10.2292 2.1736C5.8754 2.16631 2.32971 5.712 2.32971 10.0658C2.32971 11.8423 2.91945 13.4805 3.91326 14.8019C4.08799 14.6199 4.25909 14.4415 4.43383 14.2595C5.65698 12.9635 6.88013 11.6676 8.10692 10.3716C8.11784 10.3607 8.12513 10.3498 8.13605 10.3389C8.3399 10.1132 8.53284 9.88018 8.71486 9.6472L3.08326 9.60716C3.3126 6.00323 6.21031 3.12372 9.81788 2.91622L9.84336 8.13282C9.84336 8.13282 9.86156 8.10734 9.86156 8.1037C10.0945 7.78335 10.3275 7.463 10.5641 7.14265C10.5641 7.14265 11.0738 6.60388 11.1466 6.15248L11.1502 6.15612Z" fill="#C91717"/>
<path d="M9.8725 13.0254C10.1091 12.6686 10.3494 12.3191 10.5933 11.9697L10.6224 17.219C14.27 17.0225 17.1932 14.0883 17.3825 10.4407L11.7582 10.4007C11.9439 10.1568 12.1331 9.91652 12.3261 9.67626C12.3261 9.67626 13.3854 8.00898 13.7968 8.04539C14.6959 8.12548 15.4823 6.87684 15.4823 6.87684C15.6352 6.66206 16.487 5.66461 16.6326 5.44983C17.5718 6.74943 18.1288 8.3439 18.1288 10.0694C18.1288 14.4233 14.5867 17.9689 10.2293 17.9689C9.19176 17.9689 8.20159 17.7651 7.2915 17.401C7.40799 17.179 7.52085 16.9606 7.64098 16.7421" fill="#C91717"/>
<path d="M17.8631 3.61511C17.7248 3.82989 17.5901 4.04103 17.4481 4.25217C18.7331 5.843 19.5049 7.86702 19.5049 10.0658C19.5049 15.1768 15.344 19.3377 10.2329 19.3377C8.91879 19.3377 7.67015 19.0611 6.53801 18.566C6.39603 18.7261 6.24314 18.8863 6.06476 19.0465C6.03564 19.072 6.00288 19.0902 5.97375 19.112C7.26607 19.7236 8.71129 20.0658 10.2329 20.0658C15.7481 20.0658 20.2329 15.5809 20.2329 10.0658C20.2329 7.60856 19.3411 5.35883 17.8667 3.61511H17.8631Z" fill="#C91717"/>
<path d="M2.79568 16.0796C2.84665 15.9886 2.90489 15.9049 2.96678 15.8212C1.71086 14.2376 0.953675 12.2391 0.953675 10.0658C0.957315 4.95477 5.11822 0.793863 10.2292 0.793863C11.5288 0.793863 12.7629 1.06325 13.8878 1.54741C14.048 1.35447 14.2154 1.16154 14.3792 0.968599C13.116 0.389786 11.7109 0.0657959 10.2292 0.0657959C4.71414 0.0657959 0.229248 4.55069 0.229248 10.0658C0.229248 12.5339 1.13205 14.7946 2.61731 16.542C2.65735 16.3818 2.7156 16.2289 2.79568 16.0796Z" fill="#C91717"/>
<path d="M17.5791 2.15893C17.5245 2.16621 16.8365 2.99621 15.606 4.53607C14.9508 5.36606 14.4011 6.03953 14.3719 6.04317C14.2955 6.05409 14.1535 5.89755 14.1863 5.83203C14.2009 5.79562 14.6195 5.20953 15.1182 4.52151C16.4469 2.6977 17.1022 1.74757 17.0476 1.70389C16.9857 1.64928 16.1812 2.61033 14.7396 4.44506C14.2591 5.06028 13.8332 5.57356 13.7968 5.5772C13.7094 5.58812 13.6002 5.49348 13.6148 5.39883C13.6148 5.35878 13.957 4.87826 14.3792 4.33949C15.8135 2.4538 16.5926 1.35441 16.5307 1.30709C16.4688 1.25977 15.7953 2.0388 14.2809 3.88809C13.7495 4.54335 13.2798 5.10396 13.2471 5.12216C13.1925 5.16949 13.0068 5.0712 12.9923 4.98019C12.9886 4.94742 13.0942 4.79453 13.2252 4.63072C13.6293 4.11379 15.5077 1.59468 15.7407 1.24884C15.8645 1.06683 15.9519 0.903013 15.9373 0.892092C15.8754 0.830206 14.9799 1.83858 13.3781 3.77524C11.7655 5.72646 11.8237 5.62817 11.9002 6.24338C11.9584 6.69115 11.9074 7.01149 11.7254 7.36825C11.5944 7.62671 9.77057 10.0475 8.86776 11.1542C7.87759 12.381 6.76729 13.5568 5.35484 14.9001C3.46551 16.6948 3.39998 16.7567 3.29077 16.9933C3.19248 17.1935 3.1852 17.2481 3.23252 17.5066C3.33081 18.0563 3.76401 18.504 4.29914 18.6351C4.62677 18.7115 4.94712 18.6678 5.15826 18.5259C5.36212 18.3875 5.47861 18.2164 6.32317 16.6584C7.40071 14.6853 8.06325 13.5969 8.95877 12.2827C9.56307 11.3945 12.1331 8.1036 12.388 7.88153C12.6865 7.61579 12.9813 7.48838 13.4291 7.43013C13.8441 7.37553 14.0006 7.29544 14.2518 7.00057C14.594 6.5965 16.8911 3.35296 17.3607 2.62125C17.6046 2.24266 17.6446 2.14801 17.5718 2.15893H17.5791Z" fill="#C91717"/>
</g>
<defs>
<clipPath id="clip0_68_2570">
<rect width="20" height="20" fill="white" transform="translate(0.229248 0.0657959)"/>
</clipPath>
</defs>
</svg>
